C:\Users\Nicos\Documents\OpenSimProjects\SprintingProject\Study1\PredictiveResults\IC_pred_Sprinting_optimum_28-October-2023__16-43-06_p02_maxVel_01___IKTD_Plus_4_GRF.mot
version=1
nRows=4
nColumns=127
inDegrees=yes
endheader
time	ground_force_vx	ground_force_vy	ground_force_vz	ground_force_px	ground_force_py	ground_force_pz	ground_torque_x	ground_torque_y	ground_torque_z	1_ground_force_vx	1_ground_force_vy	1_ground_force_vz	1_ground_force_px	1_ground_force_py	1_ground_force_pz	1_ground_torque_x	1_ground_torque_y	1_ground_torque_z	2_ground_force_vx	2_ground_force_vy	2_ground_force_vz	2_ground_force_px	2_ground_force_py	2_ground_force_pz	2_ground_torque_x	2_ground_torque_y	2_ground_torque_z	3_ground_force_vx	3_ground_force_vy	3_ground_force_vz	3_ground_force_px	3_ground_force_py	3_ground_force_pz	3_ground_torque_x	3_ground_torque_y	3_ground_torque_z	4_ground_force_vx	4_ground_force_vy	4_ground_force_vz	4_ground_force_px	4_ground_force_py	4_ground_force_pz	4_ground_torque_x	4_ground_torque_y	4_ground_torque_z	5_ground_force_vx	5_ground_force_vy	5_ground_force_vz	5_ground_force_px	5_ground_force_py	5_ground_force_pz	5_ground_torque_x	5_ground_torque_y	5_ground_torque_z	6_ground_force_vx	6_ground_force_vy	6_ground_force_vz	6_ground_force_px	6_ground_force_py	6_ground_force_pz	6_ground_torque_x	6_ground_torque_y	6_ground_torque_z	7_ground_force_vx	7_ground_force_vy	7_ground_force_vz	7_ground_force_px	7_ground_force_py	7_ground_force_pz	7_ground_torque_x	7_ground_torque_y	7_ground_torque_z	8_ground_force_vx	8_ground_force_vy	8_ground_force_vz	8_ground_force_px	8_ground_force_py	8_ground_force_pz	8_ground_torque_x	8_ground_torque_y	8_ground_torque_z	9_ground_force_vx	9_ground_force_vy	9_ground_force_vz	9_ground_force_px	9_ground_force_py	9_ground_force_pz	9_ground_torque_x	9_ground_torque_y	9_ground_torque_z	10_ground_force_vx	10_ground_force_vy	10_ground_force_vz	10_ground_force_px	10_ground_force_py	10_ground_force_pz	10_ground_torque_x	10_ground_torque_y	10_ground_torque_z	11_ground_force_vx	11_ground_force_vy	11_ground_force_vz	11_ground_force_px	11_ground_force_py	11_ground_force_pz	11_ground_torque_x	11_ground_torque_y	11_ground_torque_z	12_ground_force_vx	12_ground_force_vy	12_ground_force_vz	12_ground_force_px	12_ground_force_py	12_ground_force_pz	12_ground_torque_x	12_ground_torque_y	12_ground_torque_z	13_ground_force_vx	13_ground_force_vy	13_ground_force_vz	13_ground_force_px	13_ground_force_py	13_ground_force_pz	13_ground_torque_x	13_ground_torque_y	13_ground_torque_z
0.106709	314.511658	801.638499	-109.672202	0.423249	-0.018463	0.425157	0.000000	0.000000	0.000000	143.915693	380.859948	26.489191	0.378245	-0.012115	0.441910	0.000000	0.000000	0.000000	70.610989	264.217603	39.728002	0.346680	-0.010157	0.428338	0.000000	0.000000	0.000000	116.218084	378.322880	-5.684130	0.351763	-0.012835	0.406845	0.000000	0.000000	0.000000	-0.064173	0.209487	0.054680	0.262304	0.004839	0.448488	0.000000	0.000000	0.000000	-30.243085	128.249494	30.367271	0.318813	-0.006522	0.419934	0.000000	0.000000	0.000000	-0.002890	0.007479	0.002137	0.207348	0.008018	0.386322	0.000000	0.000000	0.000000	-0.000000	0.000000	-0.000000	0.377056	0.209367	0.114911	0.000000	0.000000	0.000000	-0.000000	0.000000	-0.000000	0.377855	0.233214	0.101060	0.000000	0.000000	0.000000	-0.000000	0.000000	0.000000	0.370028	0.247495	0.112830	0.000000	0.000000	0.000000	-0.000000	0.000000	0.000000	0.361146	0.243547	0.132202	0.000000	0.000000	0.000000	-0.000000	0.000000	0.000000	0.370962	0.292728	0.097339	0.000000	0.000000	0.000000	-0.000000	0.000000	0.000000	0.363783	0.261526	0.121405	0.000000	0.000000	0.000000	-0.000000	0.000000	0.000000	0.338801	0.317650	0.155703	0.000000	0.000000	0.000000
0.108753	365.030215	826.035485	-88.866047	0.422433	-0.018925	0.425425	0.000000	0.000000	0.000000	139.147094	342.838112	35.982919	0.378023	-0.011417	0.441845	0.000000	0.000000	0.000000	41.967631	198.251529	43.397175	0.347141	-0.008523	0.428313	0.000000	0.000000	0.000000	92.556654	304.711821	-6.252048	0.352088	-0.011317	0.406848	0.000000	0.000000	0.000000	-0.002008	0.005914	0.001495	0.264141	0.008417	0.448009	0.000000	0.000000	0.000000	-18.233909	68.040755	14.572634	0.319689	-0.004245	0.419760	0.000000	0.000000	0.000000	-0.000018	0.000041	0.000012	0.209877	0.012864	0.385547	0.000000	0.000000	0.000000	-0.000000	0.000000	-0.000000	0.417450	0.205815	0.113741	0.000000	0.000000	0.000000	-0.000000	0.000000	-0.000000	0.416655	0.229613	0.099550	0.000000	0.000000	0.000000	-0.000000	0.000000	0.000000	0.407128	0.243903	0.111270	0.000000	0.000000	0.000000	-0.000000	0.000000	0.000000	0.398302	0.239852	0.130581	0.000000	0.000000	0.000000	-0.000000	0.000000	0.000000	0.405439	0.289103	0.095466	0.000000	0.000000	0.000000	-0.000000	0.000000	0.000000	0.399941	0.257845	0.119683	0.000000	0.000000	0.000000	-0.000000	0.000000	0.000000	0.371194	0.313615	0.153337	0.000000	0.000000	0.000000
0.110234	390.507782	834.427893	-79.851893	0.421670	-0.019194	0.425613	0.000000	0.000000	0.000000	130.383490	310.460703	35.131288	0.377802	-0.010800	0.441770	0.000000	0.000000	0.000000	27.097304	151.610408	37.568516	0.347556	-0.007188	0.428294	0.000000	0.000000	0.000000	75.892416	250.996430	9.831573	0.352393	-0.010068	0.406849	0.000000	0.000000	0.000000	-0.000109	0.000300	0.000074	0.265728	0.011215	0.447640	0.000000	0.000000	0.000000	-9.050116	32.240602	6.681091	0.320462	-0.002425	0.419625	0.000000	0.000000	0.000000	-0.000000	0.000001	0.000000	0.212084	0.016626	0.384947	0.000000	0.000000	0.000000	-0.000000	0.000000	-0.000000	0.446887	0.203205	0.113029	0.000000	0.000000	0.000000	-0.000000	0.000000	-0.000000	0.444927	0.226947	0.098580	0.000000	0.000000	0.000000	-0.000000	0.000000	0.000000	0.434165	0.241214	0.110238	0.000000	0.000000	0.000000	-0.000000	0.000000	0.000000	0.425392	0.237088	0.129511	0.000000	0.000000	0.000000	-0.000000	0.000000	0.000000	0.430536	0.286364	0.094187	0.000000	0.000000	0.000000	-0.000000	0.000000	0.000000	0.426290	0.255082	0.118530	0.000000	0.000000	0.000000	-0.000000	0.000000	0.000000	0.394791	0.310553	0.151695	0.000000	0.000000	0.000000
0.110881	399.106277	835.446743	-75.065691	0.421303	-0.019283	0.425693	0.000000	0.000000	0.000000	125.258849	295.257034	33.693540	0.377703	-0.010494	0.441735	0.000000	0.000000	0.000000	25.275623	132.080122	31.885231	0.347758	-0.006567	0.428284	0.000000	0.000000	0.000000	66.914724	227.962887	20.955055	0.352543	-0.009485	0.406847	0.000000	0.000000	0.000000	-0.000028	0.000075	0.000018	0.266494	0.012490	0.447475	0.000000	0.000000	0.000000	-5.549981	19.904361	4.236920	0.320837	-0.001587	0.419563	0.000000	0.000000	0.000000	-0.000000	0.000000	0.000000	0.213154	0.018335	0.384680	0.000000	0.000000	0.000000	-0.000000	0.000000	-0.000000	0.459783	0.202058	0.112754	0.000000	0.000000	0.000000	-0.000000	0.000000	-0.000000	0.457313	0.225770	0.098190	0.000000	0.000000	0.000000	-0.000000	0.000000	0.000000	0.446014	0.240019	0.109815	0.000000	0.000000	0.000000	-0.000000	0.000000	0.000000	0.437268	0.235860	0.129071	0.000000	0.000000	0.000000	-0.000000	0.000000	0.000000	0.441529	0.285140	0.093652	0.000000	0.000000	0.000000	-0.000000	0.000000	0.000000	0.437837	0.253851	0.118052	0.000000	0.000000	0.000000	-0.000000	0.000000	0.000000	0.405133	0.309180	0.151000	0.000000	0.000000	0.000000
